<?xml version="1.0" encoding="UTF-8"?>
<!DOCTYPE svg PUBLIC "-//W3C//DTD SVG 1.1//EN" "http://www.w3.org/Graphics/SVG/1.1/DTD/svg11.dtd">
<svg version="1.2" width="840.99mm" height="325.37mm" viewBox="0 0 84099 32537" preserveAspectRatio="xMidYMid" fill-rule="evenodd" clip-path="url(#presentation_clip_path)" stroke-width="28.222" stroke-linejoin="round" xmlns="http://www.w3.org/2000/svg" xmlns:ooo="http://xml.openoffice.org/svg/export" xmlns:xlink="http://www.w3.org/1999/xlink" xml:space="preserve">
 <defs class="ClipPathGroup">
  <clipPath id="presentation_clip_path" clipPathUnits="userSpaceOnUse">
   <rect x="0" y="0" width="84099" height="32537"/>
  </clipPath>
 </defs>
 <defs class="TextShapeIndex">
  <g ooo:slide="id1" ooo:id-list="id3 id4 id5 id6 id7 id8"/>
 </defs>
 <defs class="EmbeddedBulletChars">
  <g id="bullet-char-template(57356)" transform="scale(0.00048828125,-0.00048828125)">
   <path d="M 580,1141 L 1163,571 580,0 -4,571 580,1141 Z"/>
  </g>
  <g id="bullet-char-template(57354)" transform="scale(0.00048828125,-0.00048828125)">
   <path d="M 8,1128 L 1137,1128 1137,0 8,0 8,1128 Z"/>
  </g>
  <g id="bullet-char-template(10146)" transform="scale(0.00048828125,-0.00048828125)">
   <path d="M 174,0 L 602,739 174,1481 1456,739 174,0 Z M 1358,739 L 309,1346 659,739 1358,739 Z"/>
  </g>
  <g id="bullet-char-template(10132)" transform="scale(0.00048828125,-0.00048828125)">
   <path d="M 2015,739 L 1276,0 717,0 1260,543 174,543 174,936 1260,936 717,1481 1274,1481 2015,739 Z"/>
  </g>
  <g id="bullet-char-template(10007)" transform="scale(0.00048828125,-0.00048828125)">
   <path d="M 0,-2 C -7,14 -16,27 -25,37 L 356,567 C 262,823 215,952 215,954 215,979 228,992 255,992 264,992 276,990 289,987 310,991 331,999 354,1012 L 381,999 492,748 772,1049 836,1024 860,1049 C 881,1039 901,1025 922,1006 886,937 835,863 770,784 769,783 710,716 594,584 L 774,223 C 774,196 753,168 711,139 L 727,119 C 717,90 699,76 672,76 641,76 570,178 457,381 L 164,-76 C 142,-110 111,-127 72,-127 30,-127 9,-110 8,-76 1,-67 -2,-52 -2,-32 -2,-23 -1,-13 0,-2 Z"/>
  </g>
  <g id="bullet-char-template(10004)" transform="scale(0.00048828125,-0.00048828125)">
   <path d="M 285,-33 C 182,-33 111,30 74,156 52,228 41,333 41,471 41,549 55,616 82,672 116,743 169,778 240,778 293,778 328,747 346,684 L 369,508 C 377,444 397,411 428,410 L 1163,1116 C 1174,1127 1196,1133 1229,1133 1271,1133 1292,1118 1292,1087 L 1292,965 C 1292,929 1282,901 1262,881 L 442,47 C 390,-6 338,-33 285,-33 Z"/>
  </g>
  <g id="bullet-char-template(9679)" transform="scale(0.00048828125,-0.00048828125)">
   <path d="M 813,0 C 632,0 489,54 383,161 276,268 223,411 223,592 223,773 276,916 383,1023 489,1130 632,1184 813,1184 992,1184 1136,1130 1245,1023 1353,916 1407,772 1407,592 1407,412 1353,268 1245,161 1136,54 992,0 813,0 Z"/>
  </g>
  <g id="bullet-char-template(8226)" transform="scale(0.00048828125,-0.00048828125)">
   <path d="M 346,457 C 273,457 209,483 155,535 101,586 74,649 74,723 74,796 101,859 155,911 209,963 273,989 346,989 419,989 480,963 531,910 582,859 608,796 608,723 608,648 583,586 532,535 482,483 420,457 346,457 Z"/>
  </g>
  <g id="bullet-char-template(8211)" transform="scale(0.00048828125,-0.00048828125)">
   <path d="M -4,459 L 1135,459 1135,606 -4,606 -4,459 Z"/>
  </g>
 </defs>
 <defs class="TextEmbeddedBitmaps"/>
 <g>
  <g id="id2" class="Master_Slide">
   <g id="bg-id2" class="Background"/>
   <g id="bo-id2" class="BackgroundObjects"/>
  </g>
 </g>
 <g class="SlideGroup">
  <g>
   <g id="id1" class="Slide" clip-path="url(#presentation_clip_path)">
    <g class="Page">
     <g class="Group">
      <g class="Graphic">
       <g id="id3"><tspan class="TextPosition" y="28379"><tspan font-family="Arial, sans-serif" font-size="1049px" font-weight="400" fill="rgb(0,0,0)" stroke="none">350</tspan><tspan font-family="Arial, sans-serif" font-size="1049px" font-weight="400" fill="rgb(0,0,0)" stroke="none">400</tspan><tspan font-family="Arial, sans-serif" font-size="1049px" font-weight="400" fill="rgb(0,0,0)" stroke="none">450</tspan><tspan font-family="Arial, sans-serif" font-size="1049px" font-weight="400" fill="rgb(0,0,0)" stroke="none">500</tspan><tspan font-family="Arial, sans-serif" font-size="1049px" font-weight="400" fill="rgb(0,0,0)" stroke="none">550</tspan><tspan font-family="Arial, sans-serif" font-size="1049px" font-weight="400" fill="rgb(0,0,0)" stroke="none">600</tspan><tspan font-family="Arial, sans-serif" font-size="1049px" font-weight="400" fill="rgb(0,0,0)" stroke="none">650</tspan></tspan><tspan class="TextPosition" x="5373" y="25720"><tspan font-family="Arial, sans-serif" font-size="1049px" font-weight="400" fill="rgb(0,0,0)" stroke="none">0.000</tspan></tspan><tspan class="TextPosition" x="5373" y="22873"><tspan font-family="Arial, sans-serif" font-size="1049px" font-weight="400" fill="rgb(0,0,0)" stroke="none">0.005</tspan></tspan><tspan class="TextPosition" x="5373" y="20025"><tspan font-family="Arial, sans-serif" font-size="1049px" font-weight="400" fill="rgb(0,0,0)" stroke="none">0.010</tspan></tspan><tspan class="TextPosition" x="5373" y="17178"><tspan font-family="Arial, sans-serif" font-size="1049px" font-weight="400" fill="rgb(0,0,0)" stroke="none">0.015</tspan></tspan><tspan class="TextPosition" x="5373" y="14344"><tspan font-family="Arial, sans-serif" font-size="1049px" font-weight="400" fill="rgb(0,0,0)" stroke="none">0.020</tspan></tspan><tspan class="TextPosition" x="5373" y="11497"><tspan font-family="Arial, sans-serif" font-size="1049px" font-weight="400" fill="rgb(0,0,0)" stroke="none">0.025</tspan></tspan><tspan class="TextPosition" x="5373" y="8649"><tspan font-family="Arial, sans-serif" font-size="1049px" font-weight="400" fill="rgb(0,0,0)" stroke="none">0.030</tspan></tspan><tspan class="TextPosition" x="5373" y="5802"><tspan font-family="Arial, sans-serif" font-size="1049px" font-weight="400" fill="rgb(0,0,0)" stroke="none">0.035</tspan>
         <line fill="rgb(0,0,0)" stroke="rgb(0,0,0)" x1="8046" y1="27281" x2="8046" y2="26856"/>
         <line fill="rgb(0,0,0)" stroke="rgb(0,0,0)" x1="9970" y1="27068" x2="9970" y2="26856"/>
         <line fill="rgb(0,0,0)" stroke="rgb(0,0,0)" x1="11885" y1="27281" x2="11885" y2="26856"/>
         <line fill="rgb(0,0,0)" stroke="rgb(0,0,0)" x1="13810" y1="27068" x2="13810" y2="26856"/>
         <line fill="rgb(0,0,0)" stroke="rgb(0,0,0)" x1="15735" y1="27281" x2="15735" y2="26856"/>
         <line fill="rgb(0,0,0)" stroke="rgb(0,0,0)" x1="17649" y1="27068" x2="17649" y2="26856"/>
         <line fill="rgb(0,0,0)" stroke="rgb(0,0,0)" x1="19574" y1="27281" x2="19574" y2="26856"/>
         <line fill="rgb(0,0,0)" stroke="rgb(0,0,0)" x1="21499" y1="27068" x2="21499" y2="26856"/>
         <line fill="rgb(0,0,0)" stroke="rgb(0,0,0)" x1="23413" y1="27281" x2="23413" y2="26856"/>
         <line fill="rgb(0,0,0)" stroke="rgb(0,0,0)" x1="25338" y1="27068" x2="25338" y2="26856"/>
         <line fill="rgb(0,0,0)" stroke="rgb(0,0,0)" x1="27263" y1="27281" x2="27263" y2="26856"/>
         <line fill="rgb(0,0,0)" stroke="rgb(0,0,0)" x1="29177" y1="27068" x2="29177" y2="26856"/>
         <line fill="rgb(0,0,0)" stroke="rgb(0,0,0)" x1="31102" y1="27281" x2="31102" y2="26856"/>
         <line fill="rgb(0,0,0)" stroke="rgb(0,0,0)" x1="8046" y1="26856" x2="31102" y2="26856"/>
         <line fill="rgb(0,0,0)" stroke="rgb(0,0,0)" x1="7876" y1="26856" x2="8046" y2="26856"/>
         <line fill="rgb(0,0,0)" stroke="rgb(0,0,0)" x1="7706" y1="25433" x2="8046" y2="25433"/>
         <line fill="rgb(0,0,0)" stroke="rgb(0,0,0)" x1="7876" y1="24009" x2="8046" y2="24009"/>
         <line fill="rgb(0,0,0)" stroke="rgb(0,0,0)" x1="7706" y1="22585" x2="8046" y2="22585"/>
         <line fill="rgb(0,0,0)" stroke="rgb(0,0,0)" x1="7876" y1="21162" x2="8046" y2="21162"/>
         <line fill="rgb(0,0,0)" stroke="rgb(0,0,0)" x1="7706" y1="19738" x2="8046" y2="19738"/>
         <line fill="rgb(0,0,0)" stroke="rgb(0,0,0)" x1="7876" y1="18314" x2="8046" y2="18314"/>
         <line fill="rgb(0,0,0)" stroke="rgb(0,0,0)" x1="7706" y1="16891" x2="8046" y2="16891"/>
         <line fill="rgb(0,0,0)" stroke="rgb(0,0,0)" x1="7876" y1="15480" x2="8046" y2="15480"/>
         <line fill="rgb(0,0,0)" stroke="rgb(0,0,0)" x1="7706" y1="14056" x2="8046" y2="14056"/>
         <line fill="rgb(0,0,0)" stroke="rgb(0,0,0)" x1="7876" y1="12633" x2="8046" y2="12633"/>
         <line fill="rgb(0,0,0)" stroke="rgb(0,0,0)" x1="7706" y1="11209" x2="8046" y2="11209"/>
         <line fill="rgb(0,0,0)" stroke="rgb(0,0,0)" x1="7876" y1="9785" x2="8046" y2="9785"/>
         <line fill="rgb(0,0,0)" stroke="rgb(0,0,0)" x1="7706" y1="8362" x2="8046" y2="8362"/>
         <line fill="rgb(0,0,0)" stroke="rgb(0,0,0)" x1="7876" y1="6938" x2="8046" y2="6938"/>
         <line fill="rgb(0,0,0)" stroke="rgb(0,0,0)" x1="7706" y1="5515" x2="8046" y2="5515"/>
         <line fill="rgb(0,0,0)" stroke="rgb(0,0,0)" x1="8046" y1="26856" x2="8046" y2="5515"/>
         <path fill="none" stroke="rgb(0,0,0)" stroke-width="50" d="M 10987,25320 L 11167,25395 11346,25382 11526,25382 11696,25382 11875,25358 12055,25358 12224,25307 12403,25270 12583,25233 12752,25170 12932,25083 13111,24983 13281,24920 13461,24783 13640,24771 13810,24583 13989,24484 14169,24233 14338,23884 14517,23472 14697,23260 14867,22860 15046,22460 15226,22173 15395,21599 15575,20912 15754,20388 15924,19776 16103,19351 16283,18689 16453,18152 16632,17428 16812,16829 16981,15729 17160,15080 17340,14281 17509,13207 17689,12370 17868,12158 18038,11534 18218,10797 18397,10859 18577,10160 18746,9186 18926,8974 19105,8724 19274,8249 19454,8025 19633,7725 19803,7700 19983,7875 20162,8274 20332,8574 20511,9561 20691,10023 20860,10472 21040,11384 21219,12670 21389,13469 21569,14156 21748,15030 21917,15567 22097,16379 22276,16966 22446,17915 22625,18801 22805,19463 22975,20050 23154,20725 23334,21262 23503,21824 23683,22273 23862,22573 24031,23035 24211,23384 24390,23609 24560,23771 24740,24059 24919,24259 25099,24484 25268,24733 25448,24920 25627,25033 25797,25145 25976,25195 26156,25208 26326,25245 26505,25283 26685,25245 26854,25283 27033,25345 27213,25382 27382,25382 27562,25420 27741,25433 27911,25420 28091,25407 28270,25395 28440,25382"/></tspan><tspan class="TextPosition" x="3967" y="24034" transform="translate(3967,24034) rotate(-90) translate(-3967,-24034)"><tspan font-family="Arial, sans-serif" font-size="1711px" font-weight="400" fill="rgb(0,0,0)" stroke="none">Expected frequency</tspan></tspan><tspan class="TextPosition" x="13181" y="30752"><tspan font-family="Arial, sans-serif" font-size="1711px" font-weight="400" fill="rgb(0,0,0)" stroke="none">Overlap / nucleotides</tspan></tspan>
       </g>
      </g>
      <g class="Graphic">
       <g id="id4"><tspan class="TextPosition" y="28379"><tspan font-family="Arial, sans-serif" font-size="1049px" font-weight="400" fill="rgb(0,0,0)" stroke="none">350</tspan><tspan font-family="Arial, sans-serif" font-size="1049px" font-weight="400" fill="rgb(0,0,0)" stroke="none">400</tspan><tspan font-family="Arial, sans-serif" font-size="1049px" font-weight="400" fill="rgb(0,0,0)" stroke="none">450</tspan><tspan font-family="Arial, sans-serif" font-size="1049px" font-weight="400" fill="rgb(0,0,0)" stroke="none">500</tspan><tspan font-family="Arial, sans-serif" font-size="1049px" font-weight="400" fill="rgb(0,0,0)" stroke="none">550</tspan><tspan font-family="Arial, sans-serif" font-size="1049px" font-weight="400" fill="rgb(0,0,0)" stroke="none">600</tspan><tspan font-family="Arial, sans-serif" font-size="1049px" font-weight="400" fill="rgb(0,0,0)" stroke="none">650</tspan></tspan><tspan class="TextPosition" y="25720"><tspan font-family="Arial, sans-serif" font-size="1049px" font-weight="400" fill="rgb(0,0,0)" stroke="none">0.000</tspan></tspan><tspan class="TextPosition" y="22873"><tspan font-family="Arial, sans-serif" font-size="1049px" font-weight="400" fill="rgb(0,0,0)" stroke="none">0.005</tspan></tspan><tspan class="TextPosition" y="20025"><tspan font-family="Arial, sans-serif" font-size="1049px" font-weight="400" fill="rgb(0,0,0)" stroke="none">0.010</tspan></tspan><tspan class="TextPosition" y="17178"><tspan font-family="Arial, sans-serif" font-size="1049px" font-weight="400" fill="rgb(0,0,0)" stroke="none">0.015</tspan></tspan><tspan class="TextPosition" y="14344"><tspan font-family="Arial, sans-serif" font-size="1049px" font-weight="400" fill="rgb(0,0,0)" stroke="none">0.020</tspan></tspan><tspan class="TextPosition" y="11497"><tspan font-family="Arial, sans-serif" font-size="1049px" font-weight="400" fill="rgb(0,0,0)" stroke="none">0.025</tspan></tspan><tspan class="TextPosition" y="8649"><tspan font-family="Arial, sans-serif" font-size="1049px" font-weight="400" fill="rgb(0,0,0)" stroke="none">0.030</tspan></tspan><tspan class="TextPosition" y="5802"><tspan font-family="Arial, sans-serif" font-size="1049px" font-weight="400" fill="rgb(0,0,0)" stroke="none">0.035</tspan>
         <line fill="rgb(0,0,0)" stroke="rgb(0,0,0)" x1="45136" y1="27281" x2="45136" y2="26856"/>
         <line fill="rgb(0,0,0)" stroke="rgb(0,0,0)" x1="47060" y1="27068" x2="47060" y2="26856"/>
         <line fill="rgb(0,0,0)" stroke="rgb(0,0,0)" x1="48975" y1="27281" x2="48975" y2="26856"/>
         <line fill="rgb(0,0,0)" stroke="rgb(0,0,0)" x1="50900" y1="27068" x2="50900" y2="26856"/>
         <line fill="rgb(0,0,0)" stroke="rgb(0,0,0)" x1="52825" y1="27281" x2="52825" y2="26856"/>
         <line fill="rgb(0,0,0)" stroke="rgb(0,0,0)" x1="54739" y1="27068" x2="54739" y2="26856"/>
         <line fill="rgb(0,0,0)" stroke="rgb(0,0,0)" x1="56664" y1="27281" x2="56664" y2="26856"/>
         <line fill="rgb(0,0,0)" stroke="rgb(0,0,0)" x1="58589" y1="27068" x2="58589" y2="26856"/>
         <line fill="rgb(0,0,0)" stroke="rgb(0,0,0)" x1="60503" y1="27281" x2="60503" y2="26856"/>
         <line fill="rgb(0,0,0)" stroke="rgb(0,0,0)" x1="62428" y1="27068" x2="62428" y2="26856"/>
         <line fill="rgb(0,0,0)" stroke="rgb(0,0,0)" x1="64353" y1="27281" x2="64353" y2="26856"/>
         <line fill="rgb(0,0,0)" stroke="rgb(0,0,0)" x1="66267" y1="27068" x2="66267" y2="26856"/>
         <line fill="rgb(0,0,0)" stroke="rgb(0,0,0)" x1="68192" y1="27281" x2="68192" y2="26856"/>
         <line fill="rgb(0,0,0)" stroke="rgb(0,0,0)" x1="45136" y1="26856" x2="68192" y2="26856"/>
         <line fill="rgb(0,0,0)" stroke="rgb(0,0,0)" x1="44966" y1="26856" x2="45136" y2="26856"/>
         <line fill="rgb(0,0,0)" stroke="rgb(0,0,0)" x1="44796" y1="25433" x2="45136" y2="25433"/>
         <line fill="rgb(0,0,0)" stroke="rgb(0,0,0)" x1="44966" y1="24009" x2="45136" y2="24009"/>
         <line fill="rgb(0,0,0)" stroke="rgb(0,0,0)" x1="44796" y1="22585" x2="45136" y2="22585"/>
         <line fill="rgb(0,0,0)" stroke="rgb(0,0,0)" x1="44966" y1="21162" x2="45136" y2="21162"/>
         <line fill="rgb(0,0,0)" stroke="rgb(0,0,0)" x1="44796" y1="19738" x2="45136" y2="19738"/>
         <line fill="rgb(0,0,0)" stroke="rgb(0,0,0)" x1="44966" y1="18314" x2="45136" y2="18314"/>
         <line fill="rgb(0,0,0)" stroke="rgb(0,0,0)" x1="44796" y1="16891" x2="45136" y2="16891"/>
         <line fill="rgb(0,0,0)" stroke="rgb(0,0,0)" x1="44966" y1="15480" x2="45136" y2="15480"/>
         <line fill="rgb(0,0,0)" stroke="rgb(0,0,0)" x1="44796" y1="14056" x2="45136" y2="14056"/>
         <line fill="rgb(0,0,0)" stroke="rgb(0,0,0)" x1="44966" y1="12633" x2="45136" y2="12633"/>
         <line fill="rgb(0,0,0)" stroke="rgb(0,0,0)" x1="44796" y1="11209" x2="45136" y2="11209"/>
         <line fill="rgb(0,0,0)" stroke="rgb(0,0,0)" x1="44966" y1="9785" x2="45136" y2="9785"/>
         <line fill="rgb(0,0,0)" stroke="rgb(0,0,0)" x1="44796" y1="8362" x2="45136" y2="8362"/>
         <line fill="rgb(0,0,0)" stroke="rgb(0,0,0)" x1="44966" y1="6938" x2="45136" y2="6938"/>
         <line fill="rgb(0,0,0)" stroke="rgb(0,0,0)" x1="44796" y1="5515" x2="45136" y2="5515"/>
         <line fill="rgb(0,0,0)" stroke="rgb(0,0,0)" x1="45136" y1="26856" x2="45136" y2="5515"/>
         <path fill="none" stroke="rgb(0,0,0)" stroke-width="50" d="M 48077,25320 L 48257,25395 48436,25382 48616,25382 48786,25382 48965,25358 49145,25358 49314,25307 49493,25270 49673,25233 49842,25170 50022,25083 50201,24983 50371,24920 50551,24783 50730,24771 50900,24583 51079,24484 51259,24233 51428,23884 51607,23472 51787,23260 51957,22860 52136,22460 52316,22173 52485,21599 52665,20912 52844,20388 53014,19776 53193,19351 53373,18689 53543,18152 53722,17428 53902,16829 54071,15729 54250,15080 54430,14281 54599,13207 54779,12370 54958,12158 55128,11534 55308,10797 55487,10859 55667,10160 55836,9186 56016,8974 56195,8724 56364,8249 56544,8025 56723,7725 56893,7700 57073,7875 57252,8274 57422,8574 57601,9561 57781,10023 57950,10472 58130,11384 58309,12670 58479,13469 58659,14156 58838,15030 59007,15567 59187,16379 59366,16966 59536,17915 59715,18801 59895,19463 60065,20050 60244,20725 60424,21262 60593,21824 60773,22273 60952,22573 61121,23035 61301,23384 61480,23609 61650,23771 61830,24059 62009,24259 62189,24484 62358,24733 62538,24920 62717,25033 62887,25145 63066,25195 63246,25208 63416,25245 63595,25283 63775,25245 63944,25283 64123,25345 64303,25382 64472,25382 64652,25420 64831,25433 65001,25420 65181,25407 65360,25395 65530,25382"/></tspan><tspan class="TextPosition" y="24034" transform="translate(13181,24034) rotate(-90) translate(-13181,-24034)"><tspan font-family="Arial, sans-serif" font-size="1711px" font-weight="400" fill="rgb(0,0,0)" stroke="none">Expected frequency</tspan></tspan><tspan class="TextPosition" y="30752"><tspan font-family="Arial, sans-serif" font-size="1711px" font-weight="400" fill="rgb(0,0,0)" stroke="none">Overlap / nucleotides</tspan></tspan>
       </g>
      </g>
      <g class="com.sun.star.drawing.TextShape">
       <g id="id5">
        <path fill="rgb(51,204,102)" stroke="none" d="M 19993,4915 L 17371,4915 17371,2928 22614,2928 22614,4915 19993,4915 Z"/>
        <text class="TextShape"><tspan class="TextParagraph" font-family="Liberation Sans, sans-serif" font-size="1552px" font-weight="400"><tspan class="TextPosition" x="17621" y="4458"><tspan fill="rgb(255,255,255)" stroke="none">Introns</tspan></tspan></tspan></text>
       </g>
      </g>
      <g class="com.sun.star.drawing.TextShape">
       <g id="id6">
        <path fill="rgb(0,153,255)" stroke="none" d="M 58697,4656 L 54873,4656 54873,2669 62521,2669 62521,4656 58697,4656 Z"/>
        <text class="TextShape"><tspan class="TextParagraph" font-family="Liberation Sans, sans-serif" font-size="1552px" font-weight="400"><tspan class="TextPosition" x="55123" y="4199"><tspan fill="rgb(255,255,255)" stroke="none">Promotors</tspan></tspan></tspan></text>
       </g>
      </g>
      <g class="com.sun.star.drawing.LineShape">
       <g id="id7">
        <path fill="none" stroke="rgb(0,0,255)" stroke-width="254" d="M 64103,17284 L 64295,24222"/>
        <path fill="rgb(0,0,255)" stroke="none" d="M 64322,25195 L 64634,24168 63955,24187 64322,25195 Z"/>
       </g>
      </g>
      <g class="com.sun.star.drawing.LineShape">
       <g id="id8">
        <path fill="none" stroke="rgb(0,128,0)" stroke-width="254" d="M 21138,17504 L 21331,24442"/>
        <path fill="rgb(0,128,0)" stroke="none" d="M 21358,25415 L 21669,24388 20991,24406 21358,25415 Z"/>
       </g>
      </g>
     </g>
    </g>
   </g>
  </g>
 </g>
</svg>